# xmcd
#
# Track frame offsets:
# 150
# 13212
# 29076
# 37041
# 44453
# 66030
# 81888
# 92408
# 103507
# 120046
# 133893
# 149332
# 163637
# 174453
#
# Disc length: 2596 seconds
#
#
# Revision: 0
# Processed by: cddbd v1.5.1PL0 Copyright (c) Steve Scherf et al.
# Submitted via: FreeRIP 2.93 
#
DISCID=ba0a220e
DTITLE=Lampa - Tak Ahoj
DYEAR=2004
DGENRE=Country
TTITLE0=Bajecny svet
TTITLE1=Tyden
TTITLE2=Optimisticka
TTITLE3=Svitani na Oslavce
TTITLE4=Silvestr 95
TTITLE5=Zeno
TTITLE6=Wabimu
TTITLE7=K padesatinam
TTITLE8=Squamish River
TTITLE9=Vila ve spanku
TTITLE10=Gordon Lake
TTITLE11=Dusi v Busi na Squamishi
TTITLE12=Tak ahoj
TTITLE13=Letokruhy
EXTD=
EXTT0=
EXTT1=
EXTT2=
EXTT3=
EXTT4=
EXTT5=
EXTT6=
EXTT7=
EXTT8=
EXTT9=
EXTT10=
EXTT11=
EXTT12=
EXTT13=
PLAYORDER=
